PathFileType	4	(X/Y/Z)	./resultDataOpenSim/trcMotMarkerGrf/sub06/qtm-05-07.trc
DataRate	CameraRate	NumFrames	NumMarkers	Units	OrigDataRate	OrigDataStartFrame	OrigNumFrames
250.000000	250.000000	8	24	m	250.000000	67	533
Frame#	Time	L.Toe.Tip			R.Toe.Tip			L.Ankle.Lat			R.Ankle.Lat			L.Ankle.Med			R.Ankle.Med			L.Heel			R.Heel			L.Knee.Lat			R.Knee.Lat			L.Knee.Med			R.Knee.Med			L.Thigh.Upper			R.Thigh.Upper			L.ASIS			R.ASIS			V.Sacral			L.Acromium			R.Acromium			C7			L.Elbow			R.Elbow			L.Wrist.Lat			R.Wrist.Lat
		X1	Y1	Z1	X2	Y2	Z2	X3	Y3	Z3	X4	Y4	Z4	X5	Y5	Z5	X6	Y6	Z6	X7	Y7	Z7	X8	Y8	Z8	X9	Y9	Z9	X10	Y10	Z10	X11	Y11	Z11	X12	Y12	Z12	X13	Y13	Z13	X14	Y14	Z14	X15	Y15	Z15	X16	Y16	Z16	X17	Y17	Z17	X18	Y18	Z18	X19	Y19	Z19	X20	Y20	Z20	X21	Y21	Z21	X22	Y22	Z22	X23	Y23	Z23	X24	Y24	Z24

67	0.264	-1.3174208	0.077925745	-0.06484731	-0.76198572	0.036374204	0.11504944	-1.2950805	0.20712965	-0.097480849	-0.89667746	0.060724167	0.13238996	-1.2751025	0.20843047	-0.015948938	-0.8752727	0.079344174	0.046173211	-1.3315955	0.26989756	-0.050341971	-0.9509179	0.037719588	0.068971295	-0.95719261	0.37778278	-0.12317516	-0.82181754	0.43941387	0.16820139	-0.95373853	0.36443531	-0.0023060826	-0.85825932	0.42879884	0.041741632	-1.0025395	0.76901072	-0.11787622	-0.96535248	0.7912287	0.22417792	-0.92322776	0.82111678	-0.083045372	-0.88593444	0.84293394	0.15738909	-1.0850291	0.90298502	0.065089572	-0.97195131	1.3205127	-0.12569143	-0.96988282	1.2848495	0.23700408	-1.0490074	1.3439477	0.058357215	-0.97797795	0.996698	-0.19606541	-1.0547223	0.9810891	0.29025386	-0.78637866	0.84580759	-0.15054309	-0.9471496	0.77267447	0.34014788
68	0.268	-1.3015217	0.078085654	-0.064108252	-0.76210846	0.036387049	0.11515675	-1.2816379	0.20741613	-0.097031045	-0.89684411	0.06073347	0.13245966	-1.2616586	0.20943337	-0.015668987	-0.87533626	0.079438977	0.046309773	-1.3193669	0.26979114	-0.050716479	-0.95095477	0.037760751	0.068982231	-0.94506035	0.38007147	-0.12302201	-0.82037313	0.43924367	0.16864877	-0.94234078	0.36698521	-0.0015779433	-0.85670661	0.42887813	0.042084202	-0.99640134	0.7708586	-0.11732122	-0.95979049	0.79241582	0.22501175	-0.91713675	0.82301339	-0.082274867	-0.88037547	0.84407024	0.15851749	-1.0816042	0.90523072	0.06455783	-0.96660816	1.3222112	-0.12540862	-0.96414254	1.2867989	0.2372689	-1.0433562	1.3455846	0.058629548	-0.97397865	0.99842714	-0.1953075	-1.047038	0.98242295	0.29099116	-0.78379269	0.84561895	-0.15122819	-0.93691065	0.77526675	0.34094414
69	0.272	-1.2852535	0.078068957	-0.063368016	-0.76222478	0.036404609	0.11524827	-1.2679908	0.2075291	-0.096589081	-0.89697684	0.060747967	0.13252082	-1.2481015	0.21027546	-0.015386234	-0.87539408	0.079531605	0.046431676	-1.3071114	0.26936879	-0.05082638	-0.95099026	0.03780503	0.068983589	-0.93299057	0.382481	-0.12281506	-0.81904649	0.43910304	0.16904204	-0.93091487	0.36959664	-0.00084943181	-0.85521354	0.42901665	0.042409293	-0.99007403	0.77273388	-0.11672772	-0.95447766	0.79358224	0.22572154	-0.91103145	0.82496217	-0.081478103	-0.87550846	0.84513148	0.15948117	-1.0785351	0.90759215	0.06380154	-0.96125396	1.3239455	-0.12512944	-0.95839321	1.2888078	0.23751786	-1.0376995	1.3472385	0.058908035	-0.97008402	1.0002077	-0.19471129	-1.0394022	0.98381633	0.29174429	-0.781271	0.84547961	-0.15196456	-0.92660603	0.777982	0.34168997
70	0.276	-1.2686233	0.077901927	-0.062665388	-0.76233594	0.036424787	0.1153259	-1.2541348	0.20747341	-0.096168594	-0.89709181	0.060760116	0.13258166	-1.2344385	0.21095224	-0.015089322	-0.87545677	0.079617002	0.046539172	-1.2948262	0.26867011	-0.05072303	-0.95102987	0.03785171	0.068985177	-0.92096207	0.38500563	-0.12254441	-0.817831	0.43899018	0.16938397	-0.91919762	0.37220587	-0.0002356319	-0.85373634	0.42920109	0.042694327	-0.98364168	0.77464803	-0.1162228	-0.9495905	0.79467196	0.22627586	-0.90497424	0.82693503	-0.080784113	-0.87103601	0.8461804	0.1603366	-1.0744361	0.90972399	0.063297375	-0.9558777	1.3256994	-0.12485968	-0.95261317	1.2908482	0.23774799	-1.0320337	1.3489122	0.059197695	-0.96624879	1.0020588	-0.19417493	-1.0318276	0.98526533	0.29253429	-0.77877732	0.84539888	-0.152734	-0.91627792	0.78079155	0.34238198
71	0.28	-1.2516297	0.077619725	-0.062044521	-0.7624412	0.036444624	0.11539222	-1.2401218	0.20725087	-0.095751164	-0.89719578	0.060773097	0.13264771	-1.2207084	0.21145715	-0.014778119	-0.87552628	0.079695808	0.046635896	-1.2824882	0.26770706	-0.05054054	-0.95107722	0.037899138	0.068996016	-0.90896172	0.38765475	-0.12221312	-0.81672009	0.43890329	0.16967732	-0.90717003	0.37481588	0.00026830154	-0.85229287	0.4294116	0.0429085	-0.97728578	0.77663106	-0.11597024	-0.94495129	0.79572184	0.22677471	-0.89900477	0.8289177	-0.080280887	-0.86641278	0.84732007	0.16120544	-1.0689454	0.91152761	0.063214444	-0.95047312	1.3274647	-0.12459533	-0.94678082	1.2928979	0.23795853	-1.0263588	1.3506105	0.059498892	-0.96241984	1.0039848	-0.19354717	-1.024315	0.98676931	0.29336499	-0.77631309	0.84537367	-0.15353738	-0.90599543	0.78366317	0.34301422
72	0.284	-1.2342893	0.077246004	-0.061506545	-0.76254067	0.036462786	0.11545045	-1.2260064	0.20687771	-0.095325914	-0.89728893	0.060795152	0.13271775	-1.2069677	0.21179599	-0.01445631	-0.87560135	0.079774842	0.046721897	-1.2700605	0.26646064	-0.05040962	-0.95113514	0.037943078	0.069018329	-0.89698783	0.39043617	-0.12184229	-0.81570714	0.43884056	0.16992489	-0.89496437	0.37748238	0.00072941117	-0.85090389	0.42964858	0.043040101	-0.97109491	0.77870359	-0.11595696	-0.94048896	0.79675746	0.22726095	-0.89311742	0.83091574	-0.079939423	-0.86142876	0.84859078	0.16213787	-1.0626903	0.91313134	0.063417769	-0.94504083	1.3292397	-0.12433306	-0.9408992	1.2949587	0.2381468	-1.0206735	1.3523291	0.059810631	-0.95858277	1.0059724	-0.1927762	-1.0168741	0.98832988	0.29422314	-0.7739007	0.84539524	-0.15438765	-0.8957967	0.78658151	0.3435836
73	0.288	-1.2166699	0.076788331	-0.060971314	-0.76263659	0.036479891	0.11550294	-1.2118226	0.20638671	-0.094903113	-0.89736917	0.060831742	0.13278506	-1.1931983	0.21200599	-0.014126144	-0.87568627	0.079863029	0.046794229	-1.2576013	0.26492608	-0.050281268	-0.95120751	0.037975632	0.069050382	-0.88503338	0.39334829	-0.12145193	-0.8147856	0.43880019	0.17012943	-0.88268274	0.38026972	0.0012028397	-0.84963621	0.42991433	0.043111753	-0.96495485	0.78085355	-0.11589905	-0.93622358	0.79777511	0.22768893	-0.88729987	0.83293382	-0.079659234	-0.85626305	0.84995495	0.16309551	-1.0564337	0.91468012	0.063775626	-0.93959323	1.331021	-0.12407554	-0.93499327	1.2970456	0.23830948	-1.0149783	1.3540575	0.060131523	-0.95475684	1.0080022	-0.19191659	-1.0095459	0.98994935	0.29506859	-0.77154727	0.84545558	-0.15528972	-0.88563491	0.7895601	0.34409327
74	0.292	-1.1988552	0.076249103	-0.060331069	-0.76273202	0.036496635	0.1155512	-1.1975781	0.20580866	-0.094501938	-0.89743036	0.060884221	0.13284394	-1.1793349	0.21213009	-0.013788414	-0.87578733	0.079965315	0.04685393	-1.2452298	0.26312911	-0.049979276	-0.95129884	0.037985444	0.069094431	-0.8730864	0.39637713	-0.12103893	-0.81394897	0.43878042	0.17029367	-0.87037154	0.38322035	0.0017142299	-0.84865194	0.43017308	0.04314574	-0.95869756	0.78303902	-0.11549841	-0.93191261	0.79880998	0.22805216	-0.8815618	0.83495785	-0.079362852	-0.8511423	0.85135694	0.16402507	-1.0506031	0.91623089	0.064258373	-0.9341482	1.3328015	-0.12382231	-0.92907519	1.2991621	0.23844884	-1.0092819	1.3557856	0.060456801	-0.95096001	1.0100595	-0.19104005	-1.0023841	0.99161965	0.29582081	-0.76923957	0.8455484	-0.15623817	-0.87543819	0.79261985	0.34454647
